<svg width="272" height="272" viewBox="0 0 272 272" fill="none" xmlns="http://www.w3.org/2000/svg">
<rect width="68.7499" height="176" transform="matrix(0.556889 -0.830587 0.556889 0.830587 37.5736 97.0692)" fill="#58A55D"/>
<path d="M39.2116 99.4799L77.4976 42.3771L95.9945 69.5957L95.9945 184.236L39.2116 99.4799Z" fill="black" fill-opacity="0.19"/>
<path d="M22 40.3091H76.1643L90.2223 60.9825V143.676V244.976H22V40.3091Z" fill="#5186ED"/>
<path d="M249.821 40.3091L196.07 40.3091L181.599 143.676V244.976H249.821V40.3091Z" fill="#D95040"/>
<path d="M181.185 189.158V176.754L249.407 73.3867V94.0601L181.185 189.158Z" fill="black" fill-opacity="0.19"/>
<path d="M196.119 40.1291L249.821 39.9662L249.764 81.8475L135.993 244.011L97.707 186.908L196.119 40.1291Z" fill="#F2BD42"/>
<circle cx="53.01" cy="76.4918" r="14.4714" fill="black" fill-opacity="0.19"/>
<circle cx="214.263" cy="76.4918" r="14.4714" fill="black" fill-opacity="0.19"/>
<circle cx="139.838" cy="188.128" r="14.4714" fill="black" fill-opacity="0.19"/>
</svg>
