<svg width="313" height="85" viewBox="0 0 313 85" fill="none" xmlns="http://www.w3.org/2000/svg">
<path d="M107.235 61V27.4172H112.562L125.786 48.014H123.075L136.251 27.4172H141.626V61H134.158V40.0227L135.49 40.3556L126.88 53.7697H121.933L113.371 40.3556L114.655 40.0227V61H107.235ZM157.057 61.4757C154.932 61.4757 153.029 60.9524 151.349 59.9059C149.7 58.8595 148.384 57.4324 147.401 55.6249C146.449 53.8173 145.974 51.756 145.974 49.4411C145.974 47.1261 146.449 45.0648 147.401 43.2573C148.384 41.4497 149.7 40.0227 151.349 38.9762C153.029 37.9297 154.932 37.4064 157.057 37.4064C158.611 37.4064 160.006 37.7077 161.243 38.3102C162.511 38.9128 163.542 39.7531 164.335 40.8313C165.128 41.8778 165.571 43.0828 165.667 44.4465V54.4357C165.571 55.7993 165.128 57.0202 164.335 58.0984C163.574 59.1449 162.559 59.9694 161.29 60.5719C160.022 61.1744 158.611 61.4757 157.057 61.4757ZM158.531 54.9113C160.085 54.9113 161.338 54.404 162.289 53.3892C163.241 52.3427 163.716 51.0266 163.716 49.4411C163.716 48.3629 163.494 47.4115 163.05 46.587C162.638 45.7625 162.036 45.1283 161.243 44.6843C160.482 44.2086 159.594 43.9708 158.579 43.9708C157.564 43.9708 156.66 44.2086 155.868 44.6843C155.107 45.1283 154.488 45.7625 154.013 46.587C153.569 47.4115 153.347 48.3629 153.347 49.4411C153.347 50.4875 153.569 51.423 154.013 52.2476C154.457 53.0721 155.075 53.7221 155.868 54.1978C156.66 54.6735 157.548 54.9113 158.531 54.9113ZM163.431 61V54.7686L164.525 49.1557L163.431 43.5427V37.8821H170.566V61H163.431ZM190.96 61V47.8238C190.96 46.6187 190.579 45.6515 189.818 44.9221C189.089 44.161 188.153 43.7805 187.012 43.7805C186.219 43.7805 185.521 43.9549 184.919 44.3038C184.316 44.6209 183.84 45.0965 183.491 45.7308C183.143 46.3333 182.968 47.031 182.968 47.8238L180.162 46.4443C180.162 44.6367 180.558 43.0511 181.351 41.6875C182.144 40.3239 183.238 39.2774 184.633 38.5481C186.06 37.787 187.662 37.4064 189.437 37.4064C191.15 37.4064 192.656 37.8187 193.956 38.6432C195.288 39.436 196.335 40.4983 197.096 41.8302C197.857 43.1621 198.237 44.6209 198.237 46.2065V61H190.96ZM175.69 61V37.8821H182.968V61H175.69ZM202.912 61V37.8821H210.19V61H202.912ZM206.574 34.6951C205.433 34.6951 204.481 34.3145 203.72 33.5535C202.991 32.7607 202.626 31.8093 202.626 30.6994C202.626 29.5578 202.991 28.6064 203.72 27.8453C204.481 27.0843 205.433 26.7037 206.574 26.7037C207.716 26.7037 208.652 27.0843 209.381 27.8453C210.11 28.6064 210.475 29.5578 210.475 30.6994C210.475 31.8093 210.11 32.7607 209.381 33.5535C208.652 34.3145 207.716 34.6951 206.574 34.6951ZM218.264 61V35.8843C218.264 34.0133 218.676 32.3326 219.501 30.8421C220.357 29.3199 221.546 28.1307 223.068 27.2745C224.59 26.3866 226.398 25.9426 228.491 25.9426C230.076 25.9426 231.456 26.2122 232.629 26.7513C233.834 27.2587 234.881 27.9722 235.769 28.8918L231.202 33.4583C230.885 33.1412 230.52 32.9034 230.108 32.7448C229.728 32.5545 229.268 32.4594 228.729 32.4594C227.746 32.4594 226.969 32.7448 226.398 33.3156C225.827 33.8864 225.542 34.6634 225.542 35.6464V61H218.264ZM213.174 44.0659V37.8821H232.201V44.0659H213.174ZM246.427 61.5232C243.922 61.5232 241.686 61.0159 239.72 60.0011C237.785 58.9546 236.263 57.5117 235.153 55.6724C234.043 53.8331 233.488 51.756 233.488 49.4411C233.488 47.1261 234.028 45.0648 235.106 43.2573C236.216 41.418 237.706 39.9751 239.577 38.9286C241.448 37.8821 243.557 37.3589 245.904 37.3589C248.187 37.3589 250.201 37.8504 251.945 38.8335C253.689 39.8165 255.052 41.1801 256.036 42.9243C257.05 44.6684 257.558 46.6663 257.558 48.9178C257.558 49.3301 257.526 49.774 257.463 50.2497C257.431 50.6937 257.352 51.2169 257.225 51.8194L237.294 51.867V46.8724L254.133 46.8248L250.993 48.9178C250.962 47.5859 250.756 46.4919 250.375 45.6356C249.994 44.7477 249.424 44.0818 248.663 43.6378C247.933 43.1621 247.029 42.9243 245.951 42.9243C244.81 42.9243 243.811 43.1938 242.954 43.7329C242.13 44.2403 241.48 44.9697 241.004 45.9211C240.56 46.8724 240.338 48.0299 240.338 49.3935C240.338 50.7571 240.576 51.9304 241.052 52.9135C241.559 53.8649 242.257 54.6101 243.145 55.1492C244.064 55.6566 245.143 55.9103 246.379 55.9103C247.521 55.9103 248.552 55.72 249.471 55.3394C250.391 54.9272 251.199 54.3247 251.897 53.5319L255.893 57.5276C254.751 58.8595 253.372 59.8584 251.754 60.5243C250.137 61.1903 248.361 61.5232 246.427 61.5232ZM269.49 61.5708C268.126 61.5708 266.779 61.3964 265.447 61.0476C264.147 60.6987 262.926 60.2072 261.784 59.573C260.674 58.907 259.723 58.1459 258.93 57.2897L263.068 53.1038C263.83 53.9283 264.733 54.5784 265.78 55.054C266.826 55.498 267.968 55.72 269.205 55.72C270.061 55.72 270.711 55.5931 271.155 55.3394C271.631 55.0858 271.868 54.7369 271.868 54.293C271.868 53.7221 271.583 53.294 271.012 53.0086C270.473 52.6915 269.776 52.422 268.919 52.2C268.063 51.9463 267.159 51.6767 266.208 51.3913C265.257 51.1059 264.353 50.7095 263.497 50.2021C262.64 49.6948 261.943 48.9971 261.404 48.1092C260.864 47.1895 260.595 46.032 260.595 44.6367C260.595 43.1463 260.975 41.8619 261.737 40.7837C262.498 39.6738 263.576 38.8018 264.971 38.1675C266.366 37.5333 268 37.2162 269.871 37.2162C271.837 37.2162 273.644 37.565 275.293 38.2627C276.974 38.9286 278.338 39.9275 279.384 41.2594L275.246 45.4454C274.516 44.5892 273.692 43.9866 272.772 43.6378C271.884 43.289 271.012 43.1146 270.156 43.1146C269.332 43.1146 268.713 43.2414 268.301 43.4951C267.889 43.7171 267.683 44.0501 267.683 44.494C267.683 44.9697 267.952 45.3502 268.491 45.6356C269.03 45.9211 269.728 46.1747 270.584 46.3967C271.44 46.6187 272.344 46.8883 273.296 47.2054C274.247 47.5225 275.151 47.9506 276.007 48.4897C276.863 49.0288 277.561 49.7582 278.1 50.6778C278.639 51.5657 278.908 52.7391 278.908 54.1978C278.908 56.4494 278.052 58.2411 276.34 59.573C274.659 60.9049 272.376 61.5708 269.49 61.5708ZM286.139 61V28.321H293.417V61H286.139ZM280.907 44.0659V37.8821H298.649V44.0659H280.907Z" fill="#3A3A3A"/>
<rect width="85" height="85" rx="12.931" fill="#E3E3E3"/>
<rect width="16.6276" height="42.5667" transform="matrix(0.556889 -0.830587 0.556889 0.830587 17.7666 32.4768)" fill="#58A55D"/>
<path d="M18.1629 33.0598L27.4226 19.2491L31.8962 25.8321L31.8962 53.5586L18.1629 33.0598Z" fill="black" fill-opacity="0.19"/>
<path d="M14 18.749H27.1L30.5 23.749V43.749V68.249H14V18.749Z" fill="#5186ED"/>
<path d="M69.1001 18.749L56.1001 18.749L52.6001 43.749V68.249H69.1001V18.749Z" fill="#D95040"/>
<path d="M52.5 54.749V51.749L69 26.749V31.749L52.5 54.749Z" fill="black" fill-opacity="0.19"/>
<path d="M56.1118 18.7055L69.1 18.6661L69.0862 28.7953L41.57 68.0156L32.3103 54.2049L56.1118 18.7055Z" fill="#F2BD42"/>
<circle cx="21.5" cy="27.5" r="3.5" fill="black" fill-opacity="0.19"/>
<circle cx="60.5" cy="27.5" r="3.5" fill="black" fill-opacity="0.19"/>
<circle cx="42.5" cy="54.5" r="3.5" fill="black" fill-opacity="0.19"/>
</svg>
