<svg width="192" height="53" viewBox="0 0 192 53" fill="none" xmlns="http://www.w3.org/2000/svg">
<path d="M65.7798 36.9744V16.3741H69.0478L77.1595 29.0085H75.4963L83.5789 16.3741H86.8761V36.9744H82.295V24.1065L83.112 24.3107L77.8306 32.5392H74.796L69.5438 24.3107L70.3317 24.1065V36.9744H65.7798ZM96.3417 37.2662C95.0384 37.2662 93.8712 36.9452 92.8402 36.3033C91.8287 35.6613 91.0214 34.786 90.4184 33.6772C89.8348 32.5684 89.543 31.3039 89.543 29.8839C89.543 28.4639 89.8348 27.1994 90.4184 26.0906C91.0214 24.9819 91.8287 24.1065 92.8402 23.4645C93.8712 22.8226 95.0384 22.5016 96.3417 22.5016C97.2949 22.5016 98.1508 22.6864 98.9094 23.056C99.6875 23.4256 100.32 23.9411 100.806 24.6025C101.292 25.2445 101.565 25.9837 101.623 26.8201V32.9477C101.565 33.7841 101.292 34.5331 100.806 35.1945C100.339 35.8364 99.7167 36.3422 98.9386 36.7118C98.1605 37.0814 97.2949 37.2662 96.3417 37.2662ZM97.2462 33.2395C98.1994 33.2395 98.9678 32.9282 99.5514 32.3058C100.135 31.6638 100.427 30.8565 100.427 29.8839C100.427 29.2225 100.291 28.6389 100.018 28.1332C99.7653 27.6274 99.3957 27.2384 98.9094 26.966C98.4426 26.6742 97.8979 26.5283 97.2754 26.5283C96.6529 26.5283 96.0985 26.6742 95.6122 26.966C95.1453 27.2384 94.766 27.6274 94.4742 28.1332C94.2019 28.6389 94.0657 29.2225 94.0657 29.8839C94.0657 30.5258 94.2019 31.0997 94.4742 31.6055C94.7466 32.1112 95.1259 32.51 95.6122 32.8018C96.0985 33.0936 96.6432 33.2395 97.2462 33.2395ZM100.252 36.9744V33.1519L100.923 29.7088L100.252 26.2657V22.7934H104.628V36.9744H100.252ZM117.138 36.9744V28.8918C117.138 28.1526 116.905 27.5593 116.438 27.1119C115.991 26.645 115.417 26.4116 114.716 26.4116C114.23 26.4116 113.802 26.5186 113.433 26.7326C113.063 26.9271 112.771 27.2189 112.557 27.608C112.343 27.9776 112.236 28.4055 112.236 28.8918L110.515 28.0456C110.515 26.9368 110.758 25.9642 111.244 25.1277C111.73 24.2913 112.402 23.6493 113.257 23.2019C114.133 22.7351 115.115 22.5016 116.205 22.5016C117.255 22.5016 118.179 22.7545 118.977 23.2603C119.794 23.7466 120.435 24.3983 120.902 25.2153C121.369 26.0323 121.603 26.9271 121.603 27.8997V36.9744H117.138ZM107.772 36.9744V22.7934H112.236V36.9744H107.772ZM124.47 36.9744V22.7934H128.934V36.9744H124.47ZM126.717 20.8384C126.016 20.8384 125.433 20.605 124.966 20.1382C124.519 19.6518 124.295 19.0683 124.295 18.3874C124.295 17.6871 124.519 17.1036 124.966 16.6367C125.433 16.1698 126.016 15.9364 126.717 15.9364C127.417 15.9364 127.991 16.1698 128.438 16.6367C128.886 17.1036 129.109 17.6871 129.109 18.3874C129.109 19.0683 128.886 19.6518 128.438 20.1382C127.991 20.605 127.417 20.8384 126.717 20.8384ZM133.887 36.9744V21.5679C133.887 20.4202 134.14 19.3892 134.646 18.475C135.171 17.5412 135.9 16.8118 136.834 16.2865C137.768 15.7419 138.877 15.4695 140.161 15.4695C141.133 15.4695 141.979 15.6349 142.699 15.9656C143.438 16.2768 144.08 16.7145 144.625 17.2786L141.824 20.0798C141.629 19.8853 141.406 19.7394 141.153 19.6421C140.919 19.5254 140.637 19.467 140.307 19.467C139.703 19.467 139.227 19.6421 138.877 19.9923C138.527 20.3424 138.352 20.819 138.352 21.422V36.9744H133.887ZM130.765 26.5867V22.7934H142.437V26.5867H130.765ZM151.163 37.2953C149.626 37.2953 148.255 36.9841 147.049 36.3616C145.862 35.7197 144.928 34.8346 144.247 33.7063C143.567 32.5781 143.226 31.3039 143.226 29.8839C143.226 28.4639 143.557 27.1994 144.218 26.0906C144.899 24.9624 145.813 24.0773 146.961 23.4354C148.109 22.7934 149.402 22.4725 150.842 22.4725C152.242 22.4725 153.478 22.774 154.548 23.377C155.618 23.98 156.454 24.8165 157.057 25.8864C157.679 26.9563 157.991 28.1818 157.991 29.5629C157.991 29.8158 157.971 30.0882 157.932 30.3799C157.913 30.6523 157.864 30.9732 157.786 31.3428L145.561 31.372V28.3082L155.89 28.2791L153.964 29.5629C153.945 28.7459 153.818 28.0748 153.585 27.5496C153.351 27.0049 153.001 26.5964 152.534 26.3241C152.087 26.0323 151.532 25.8864 150.871 25.8864C150.171 25.8864 149.558 26.0517 149.033 26.3824C148.527 26.6937 148.128 27.1411 147.836 27.7247C147.564 28.3082 147.428 29.0183 147.428 29.8547C147.428 30.6912 147.574 31.4109 147.866 32.014C148.177 32.5975 148.605 33.0547 149.15 33.3854C149.714 33.6966 150.375 33.8522 151.134 33.8522C151.834 33.8522 152.466 33.7355 153.03 33.5021C153.594 33.2492 154.09 32.8796 154.518 32.3933L156.969 34.8443C156.269 35.6613 155.423 36.2741 154.431 36.6826C153.439 37.0911 152.349 37.2953 151.163 37.2953ZM165.31 37.3245C164.474 37.3245 163.647 37.2175 162.83 37.0036C162.033 36.7896 161.284 36.4881 160.583 36.099C159.902 35.6905 159.319 35.2236 158.833 34.6984L161.371 32.1307C161.838 32.6364 162.392 33.0352 163.034 33.327C163.676 33.5993 164.377 33.7355 165.135 33.7355C165.66 33.7355 166.059 33.6577 166.332 33.5021C166.623 33.3465 166.769 33.1325 166.769 32.8602C166.769 32.51 166.594 32.2474 166.244 32.0723C165.913 31.8778 165.485 31.7124 164.96 31.5763C164.435 31.4207 163.881 31.2553 163.297 31.0802C162.713 30.9052 162.159 30.662 161.634 30.3508C161.109 30.0395 160.681 29.6116 160.35 29.0669C160.019 28.5028 159.854 27.7928 159.854 26.9368C159.854 26.0226 160.087 25.2347 160.554 24.5733C161.021 23.8925 161.682 23.3576 162.538 22.9685C163.394 22.5795 164.396 22.3849 165.544 22.3849C166.75 22.3849 167.859 22.5989 168.87 23.0269C169.901 23.4354 170.738 24.0481 171.38 24.8651L168.841 27.4329C168.394 26.9077 167.888 26.5381 167.324 26.3241C166.779 26.1101 166.244 26.0031 165.719 26.0031C165.213 26.0031 164.834 26.0809 164.581 26.2365C164.328 26.3727 164.202 26.577 164.202 26.8493C164.202 27.1411 164.367 27.3745 164.698 27.5496C165.028 27.7247 165.456 27.8803 165.981 28.0165C166.507 28.1526 167.061 28.318 167.645 28.5125C168.228 28.707 168.783 28.9696 169.308 29.3003C169.833 29.631 170.261 30.0784 170.592 30.6426C170.922 31.1872 171.088 31.907 171.088 32.8018C171.088 34.1829 170.562 35.282 169.512 36.099C168.481 36.916 167.08 37.3245 165.31 37.3245ZM175.523 36.9744V16.9285H179.988V36.9744H175.523ZM172.313 26.5867V22.7934H183.197V26.5867H172.313Z" fill="#3A3A3A"/>
<rect width="52.1406" height="52.1406" rx="7.93212" fill="white"/>
<rect width="10.1997" height="26.1112" transform="matrix(0.556889 -0.830587 0.556889 0.830587 10.8987 19.9217)" fill="#58A55D"/>
<path d="M11.1412 20.2795L16.8213 11.8078L19.5655 15.8459L19.5654 32.8539L11.1412 20.2795Z" fill="black" fill-opacity="0.19"/>
<path d="M8.58724 11.5009H16.623L18.7087 14.568V26.8364V41.8652H8.58724V11.5009Z" fill="#5186ED"/>
<path d="M42.3871 11.5009L34.4126 11.5009L32.2657 26.8364V41.8652H42.3871V11.5009Z" fill="#D95040"/>
<path d="M32.204 33.5841V31.7438L42.3254 16.4084V19.4755L32.204 33.5841Z" fill="black" fill-opacity="0.19"/>
<path d="M34.4196 11.4742L42.3868 11.45L42.3783 17.6635L25.4994 41.722L19.8193 33.2502L34.4196 11.4742Z" fill="#F2BD42"/>
<circle cx="13.1886" cy="16.8689" r="2.14696" fill="black" fill-opacity="0.19"/>
<circle cx="37.112" cy="16.8689" r="2.14696" fill="black" fill-opacity="0.19"/>
<circle cx="26.0704" cy="33.4314" r="2.14696" fill="black" fill-opacity="0.19"/>
</svg>
