<svg width="139" height="38" viewBox="0 0 139 38" fill="none" xmlns="http://www.w3.org/2000/svg">
<path d="M47.622 26.7715V11.8578H49.9879L55.8604 21.0046H54.6563L60.5077 11.8578H62.8947V26.7715H59.5783V17.4557L60.1697 17.6036L56.3463 23.5606H54.1493L50.347 17.6036L50.9174 17.4557V26.7715H47.622ZM69.7474 26.9827C68.8038 26.9827 67.9589 26.7504 67.2125 26.2856C66.4802 25.8209 65.8957 25.1872 65.4592 24.3845C65.0367 23.5817 64.8255 22.6664 64.8255 21.6383C64.8255 20.6103 65.0367 19.6949 65.4592 18.8922C65.8957 18.0895 66.4802 17.4557 67.2125 16.991C67.9589 16.5263 68.8038 16.2939 69.7474 16.2939C70.4374 16.2939 71.0571 16.4277 71.6063 16.6953C72.1696 16.9628 72.6273 17.336 72.9794 17.8148C73.3314 18.2796 73.5286 18.8147 73.5709 19.4203V23.8564C73.5286 24.4619 73.3314 25.0041 72.9794 25.4829C72.6414 25.9476 72.1907 26.3138 71.6274 26.5814C71.0641 26.8489 70.4374 26.9827 69.7474 26.9827ZM70.4022 24.0676C71.0923 24.0676 71.6486 23.8423 72.071 23.3916C72.4935 22.9269 72.7048 22.3425 72.7048 21.6383C72.7048 21.1595 72.6062 20.737 72.409 20.3709C72.226 20.0047 71.9584 19.7231 71.6063 19.5259C71.2683 19.3147 70.874 19.209 70.4234 19.209C69.9727 19.209 69.5714 19.3147 69.2193 19.5259C68.8813 19.7231 68.6067 20.0047 68.3954 20.3709C68.1983 20.737 68.0997 21.1595 68.0997 21.6383C68.0997 22.103 68.1983 22.5185 68.3954 22.8846C68.5926 23.2508 68.8672 23.5395 69.2193 23.7507C69.5714 23.962 69.9657 24.0676 70.4022 24.0676ZM72.578 26.7715V24.0042L73.0639 21.5116L72.578 19.0189V16.5051H75.7466V26.7715H72.578ZM84.8031 26.7715V20.9201C84.8031 20.385 84.6341 19.9554 84.2961 19.6315C83.9722 19.2935 83.5568 19.1245 83.0498 19.1245C82.6978 19.1245 82.3879 19.202 82.1204 19.3569C81.8528 19.4977 81.6415 19.709 81.4866 19.9906C81.3317 20.2582 81.2543 20.568 81.2543 20.9201L80.0079 20.3075C80.0079 19.5048 80.184 18.8006 80.536 18.1951C80.8881 17.5895 81.374 17.1248 81.9936 16.8009C82.6273 16.4629 83.3385 16.2939 84.1272 16.2939C84.8876 16.2939 85.5566 16.477 86.1339 16.8431C86.7254 17.1952 87.1902 17.667 87.5281 18.2585C87.8661 18.8499 88.0351 19.4977 88.0351 20.2019V26.7715H84.8031ZM78.0223 26.7715V16.5051H81.2543V26.7715H78.0223ZM90.1109 26.7715V16.5051H93.3429V26.7715H90.1109ZM91.7375 15.0898C91.2305 15.0898 90.808 14.9208 90.47 14.5829C90.1461 14.2308 89.9842 13.8083 89.9842 13.3154C89.9842 12.8084 90.1461 12.3859 90.47 12.048C90.808 11.71 91.2305 11.541 91.7375 11.541C92.2444 11.541 92.6599 11.71 92.9838 12.048C93.3077 12.3859 93.4696 12.8084 93.4696 13.3154C93.4696 13.8083 93.3077 14.2308 92.9838 14.5829C92.6599 14.9208 92.2444 15.0898 91.7375 15.0898ZM96.9286 26.7715V15.6179C96.9286 14.7871 97.1116 14.0407 97.4778 13.3788C97.858 12.7028 98.3861 12.1747 99.0621 11.7945C99.7381 11.4001 100.541 11.203 101.47 11.203C102.174 11.203 102.787 11.3227 103.308 11.5621C103.843 11.7874 104.308 12.1043 104.702 12.5127L102.674 14.5406C102.533 14.3998 102.372 14.2942 102.188 14.2237C102.019 14.1392 101.815 14.097 101.576 14.097C101.139 14.097 100.794 14.2237 100.541 14.4772C100.287 14.7307 100.161 15.0757 100.161 15.5123V26.7715H96.9286ZM94.6683 19.2513V16.5051H103.118V19.2513H94.6683ZM109.435 27.0038C108.323 27.0038 107.33 26.7785 106.457 26.3279C105.598 25.8631 104.922 25.2224 104.429 24.4056C103.936 23.5888 103.69 22.6664 103.69 21.6383C103.69 20.6103 103.929 19.6949 104.408 18.8922C104.901 18.0754 105.563 17.4346 106.393 16.9699C107.224 16.5051 108.161 16.2728 109.203 16.2728C110.217 16.2728 111.111 16.4911 111.886 16.9276C112.66 17.3642 113.266 17.9698 113.702 18.7443C114.153 19.5189 114.378 20.4061 114.378 21.406C114.378 21.589 114.364 21.7862 114.336 21.9974C114.322 22.1946 114.287 22.427 114.231 22.6945L105.38 22.7156V20.4976L112.857 20.4765L111.463 21.406C111.449 20.8145 111.358 20.3286 111.189 19.9484C111.02 19.5541 110.766 19.2583 110.428 19.0612C110.104 18.8499 109.703 18.7443 109.224 18.7443C108.717 18.7443 108.274 18.864 107.893 19.1034C107.527 19.3287 107.238 19.6526 107.027 20.0751C106.83 20.4976 106.731 21.0116 106.731 21.6172C106.731 22.2228 106.837 22.7438 107.048 23.1804C107.274 23.6029 107.583 23.9338 107.978 24.1732C108.386 24.3985 108.865 24.5112 109.414 24.5112C109.921 24.5112 110.379 24.4267 110.787 24.2577C111.196 24.0746 111.555 23.8071 111.865 23.455L113.639 25.2294C113.132 25.8209 112.519 26.2645 111.801 26.5602C111.083 26.856 110.294 27.0038 109.435 27.0038ZM119.677 27.025C119.072 27.025 118.473 26.9475 117.882 26.7926C117.304 26.6377 116.762 26.4194 116.255 26.1378C115.762 25.842 115.34 25.504 114.988 25.1238L116.826 23.2649C117.164 23.631 117.565 23.9197 118.03 24.131C118.494 24.3281 119.001 24.4267 119.551 24.4267C119.931 24.4267 120.22 24.3704 120.417 24.2577C120.628 24.145 120.734 23.9901 120.734 23.793C120.734 23.5395 120.607 23.3494 120.353 23.2226C120.114 23.0818 119.804 22.9621 119.424 22.8635C119.044 22.7509 118.642 22.6312 118.22 22.5044C117.797 22.3777 117.396 22.2016 117.016 21.9763C116.636 21.751 116.326 21.4412 116.086 21.0468C115.847 20.6384 115.727 20.1244 115.727 19.5048C115.727 18.8429 115.896 18.2725 116.234 17.7937C116.572 17.3008 117.051 16.9135 117.671 16.6319C118.29 16.3502 119.016 16.2094 119.846 16.2094C120.72 16.2094 121.522 16.3643 122.255 16.6741C123.001 16.9699 123.607 17.4135 124.071 18.005L122.233 19.8639C121.91 19.4837 121.543 19.2161 121.135 19.0612C120.741 18.9063 120.353 18.8288 119.973 18.8288C119.607 18.8288 119.332 18.8851 119.149 18.9978C118.966 19.0964 118.875 19.2442 118.875 19.4414C118.875 19.6526 118.994 19.8216 119.234 19.9484C119.473 20.0751 119.783 20.1878 120.163 20.2864C120.544 20.385 120.945 20.5047 121.367 20.6455C121.79 20.7863 122.191 20.9764 122.571 21.2158C122.952 21.4552 123.262 21.7791 123.501 22.1875C123.74 22.5819 123.86 23.1029 123.86 23.7507C123.86 24.7506 123.48 25.5463 122.719 26.1378C121.973 26.7292 120.959 27.025 119.677 27.025ZM127.071 26.7715V12.2592H130.303V26.7715H127.071ZM124.747 19.2513V16.5051H132.627V19.2513H124.747Z" fill="white"/>
<rect width="37.7473" height="37.7473" rx="5.74249" fill="#E3E3E3"/>
<rect width="7.3841" height="18.9033" transform="matrix(0.556889 -0.830587 0.556889 0.830587 7.89062 14.4258)" fill="#58A55D"/>
<path d="M8.06681 14.6801L12.1789 8.54693L14.1656 11.4704L14.1656 23.7833L8.06681 14.6801Z" fill="black" fill-opacity="0.19"/>
<path d="M6.2168 8.32617H12.0343L13.5442 10.5466V19.4283V30.3084H6.2168V8.32617Z" fill="#5186ED"/>
<path d="M30.6875 8.32617L24.9144 8.32617L23.3601 19.4283V30.3084H30.6875V8.32617Z" fill="#D95040"/>
<path d="M23.3164 24.3114V22.9791L30.6438 11.877V14.0974L23.3164 24.3114Z" fill="black" fill-opacity="0.19"/>
<path d="M24.9207 8.30812L30.6886 8.29062L30.6825 12.7889L18.4629 30.2061L14.3508 24.0729L24.9207 8.30812Z" fill="#F2BD42"/>
<circle cx="9.54844" cy="12.2125" r="1.5543" fill="black" fill-opacity="0.19"/>
<circle cx="26.8668" cy="12.2125" r="1.5543" fill="black" fill-opacity="0.19"/>
<circle cx="18.8727" cy="24.2027" r="1.5543" fill="black" fill-opacity="0.19"/>
</svg>
